<svg xmlns="http://www.w3.org/2000/svg" xmlns:xlink="http://www.w3.org/1999/xlink" viewBox="0 0 24 24.607">
  <defs>
    <style>
      .cls-1 {
        fill: url(#linear-gradient);
      }
    </style>
    <linearGradient id="linear-gradient" x1="0.5" x2="0.5" y2="1" gradientUnits="objectBoundingBox">
      <stop offset="0" stop-color="#0083b0"/>
      <stop offset="1" stop-color="#00b4db"/>
    </linearGradient>
  </defs>
  <g id="hospital" transform="translate(0 -0.003)">
    <g id="Group_7" data-name="Group 7" transform="translate(0 0.003)">
      <g id="Group_6" data-name="Group 6" transform="translate(0 0)">
        <path id="Path_4" data-name="Path 4" class="cls-1" d="M23.707,11.582,12.707.3a.982.982,0,0,0-1.414,0l-11,11.278a1.043,1.043,0,0,0,0,1.45.982.982,0,0,0,1.414,0l.293-.3v8.8A3.042,3.042,0,0,0,5,24.61H19a3.042,3.042,0,0,0,3-3.076v-8.8l.293.3a.982.982,0,0,0,1.414,0A1.043,1.043,0,0,0,23.707,11.582ZM20,21.534a1.013,1.013,0,0,1-1,1.025H5a1.013,1.013,0,0,1-1-1.025V10.681l8-8.2,8,8.2Z" transform="translate(0 -0.003)"/>
      </g>
    </g>
    <g id="Group_9" data-name="Group 9" transform="translate(7 8.995)">
      <g id="Group_8" data-name="Group 8">
        <path id="Path_5" data-name="Path 5" class="cls-1" d="M158.34,191.2h-3v-3.076a1,1,0,1,0-2,0V191.2h-3a1.026,1.026,0,0,0,0,2.051h3v3.076a1,1,0,1,0,2,0v-3.076h3a1.026,1.026,0,0,0,0-2.051Z" transform="translate(-149.34 -187.102)"/>
      </g>
    </g>
  </g>
</svg>
