<svg xmlns="http://www.w3.org/2000/svg" viewBox="0 0 21.818 24">
  <defs>
    <style>
      .cls-1 {
        fill: #d2d2d2;
      }
    </style>
  </defs>
  <g id="notification" transform="translate(-23.272)">
    <g id="Group_21" data-name="Group 21" transform="translate(23.272)">
      <path id="Path_12" data-name="Path 12" class="cls-1" d="M44,17.455H42.908V8.727a8.727,8.727,0,1,0-17.455,0v8.727H24.363a1.091,1.091,0,0,0,0,2.182h5.455a4.364,4.364,0,0,0,8.727,0H44a1.091,1.091,0,1,0,0-2.182Zm-9.818,4.364A2.184,2.184,0,0,1,32,19.636h4.364A2.184,2.184,0,0,1,34.181,21.818Zm6.545-4.364H27.636V8.727a6.545,6.545,0,1,1,13.091,0Z" transform="translate(-23.272)"/>
    </g>
  </g>
</svg>
