<svg xmlns="http://www.w3.org/2000/svg" viewBox="0 0 24 23.98">
  <defs>
    <style>
      .cls-1 {
        fill: #d2d2d2;
      }
    </style>
  </defs>
  <g id="stethoscope_1_" data-name="stethoscope (1)" transform="translate(0 -0.213)">
    <g id="Group_10" data-name="Group 10" transform="translate(0 0.213)">
      <path id="Path_6" data-name="Path 6" class="cls-1" d="M24,11.2a3,3,0,1,0-3.981,2.819.963.963,0,0,0-.036.179v4a4,4,0,0,1-4,4h-3a4,4,0,0,1-4-4,1.023,1.023,0,0,0-.031-.156,3.735,3.735,0,0,0,1.461-.736l.91-.76a12.957,12.957,0,0,0,4.654-9.959V5.209a3,3,0,0,0-3-3H12.01v-1a1,1,0,0,0-2,0v1.9a.828.828,0,0,0-.02.1.827.827,0,0,0,.02.1v1.9a1,1,0,1,0,2,0v-1h.979a1,1,0,0,1,1,1V6.588a10.968,10.968,0,0,1-3.937,8.426l-.909.758a1.81,1.81,0,0,1-2.261,0l-.916-.757A10.961,10.961,0,0,1,2,6.588V5.209a1,1,0,0,1,1-1H4.017v1a1,1,0,0,0,2,0v-4a1,1,0,0,0-2,0v1H3a3,3,0,0,0-3,3V6.591a12.963,12.963,0,0,0,4.689,9.961l.915.755a3.754,3.754,0,0,0,1.423.726.981.981,0,0,0-.033.165,6,6,0,0,0,5.995,5.995h3A6,6,0,0,0,21.982,18.2v-4a.962.962,0,0,0-.034-.168A2.99,2.99,0,0,0,24,11.2Zm-3,1a1,1,0,1,1,1-1A1,1,0,0,1,21,12.2Z" transform="translate(0 -0.213)"/>
    </g>
  </g>
</svg>
