<svg xmlns="http://www.w3.org/2000/svg" viewBox="0 0 24 23.888">
  <defs>
    <style>
      .cls-1 {
        fill: #d2d2d2;
      }
    </style>
  </defs>
  <g id="settings" transform="translate(0 -1.196)">
    <g id="Group_24" data-name="Group 24" transform="translate(6.993 8.198)">
      <g id="Group_23" data-name="Group 23">
        <path id="Path_13" data-name="Path 13" class="cls-1" d="M154.184,150.569a5,5,0,1,0,5,5A5.008,5.008,0,0,0,154.184,150.569Zm0,8a3,3,0,1,1,3-3A3,3,0,0,1,154.184,158.572Z" transform="translate(-149.182 -150.569)"/>
      </g>
    </g>
    <g id="Group_26" data-name="Group 26" transform="translate(0 1.196)">
      <g id="Group_25" data-name="Group 25" transform="translate(0 0)">
        <path id="Path_14" data-name="Path 14" class="cls-1" d="M23.142,10.211,20.3,9.753,22,7.492a1,1,0,0,0-.087-1.3L19.069,3.3a1,1,0,0,0-1.312-.1L15.433,4.839l-.45-2.8A1,1,0,0,0,14,1.2h-4A1,1,0,0,0,9,2.054L8.536,4.89,6.224,3.2a1,1,0,0,0-1.3.1L2.095,6.119A1,1,0,0,0,2,7.43L3.66,9.75l-2.8.4A1,1,0,0,0,0,11.14v4a1,1,0,0,0,.858.988l2.844.458L2,18.849a1,1,0,0,0,.092,1.31L4.925,22.99a1,1,0,0,0,1.31.092l2.319-1.658.4,2.8a1,1,0,0,0,.99.858h4a1,1,0,0,0,.99-.855l.458-2.844,2.261,1.7a1,1,0,0,0,1.31-.092L21.8,20.162a1,1,0,0,0,.092-1.31L20.2,16.536l2.911-.34A1,1,0,0,0,24,15.2v-4A1,1,0,0,0,23.142,10.211ZM22,14.311l-2.042.238a1.964,1.964,0,0,0-1.6,1.237,2.009,2.009,0,0,0,.227,2.007l1.178,1.566-1.6,1.6-1.573-1.183a1.968,1.968,0,0,0-1.938-.246,1.991,1.991,0,0,0-1.3,1.609l-.276,1.942H10.813l-.277-1.93A1.961,1.961,0,0,0,9.3,19.559a2.01,2.01,0,0,0-2.008.226L5.725,20.963l-1.6-1.6,1.184-1.573a1.972,1.972,0,0,0,.246-1.938,1.99,1.99,0,0,0-1.61-1.3L2,14.274V12.007l1.931-.277a1.962,1.962,0,0,0,1.595-1.237A2.011,2.011,0,0,0,5.3,8.486L4.124,6.921l1.608-1.6L7.349,6.5a2.062,2.062,0,0,0,3.235-1.363L10.861,3.2h2.282l.31,1.929a1.963,1.963,0,0,0,1.238,1.6,2.01,2.01,0,0,0,2-.225L18.258,5.33l1.626,1.647L18.7,8.554a2.063,2.063,0,0,0,1.363,3.236L22,12.067v2.244Z" transform="translate(0 -1.196)"/>
      </g>
    </g>
  </g>
</svg>
